<?xml version="1.0" ?><svg width="24px" height="24px" viewBox="0 0 24 24" style="enable-background:new 0 0 24 24;" version="1.1" xml:space="preserve" xmlns="http://www.w3.org/2000/svg" xmlns:xlink="http://www.w3.org/1999/xlink"><style type="text/css">
	.st0{opacity:0.2;fill:none;stroke:#000000;stroke-width:5.000000e-02;stroke-miterlimit:10;}
	.st1{fill:none;stroke:#000000;stroke-width:2;stroke-linecap:round;stroke-linejoin:round;stroke-miterlimit:10;}
</style><g id="Layer_1"/><g id="Layer_2"><g><path d="M5.5,8C4.1,8,3,6.9,3,5.5S4.1,3,5.5,3S8,4.1,8,5.5S6.9,8,5.5,8z M5.5,5C5.2,5,5,5.2,5,5.5S5.2,6,5.5,6S6,5.8,6,5.5    S5.8,5,5.5,5z"/></g><g><path d="M11,21c-0.6,0-1-0.4-1-1V6c0-1.1,0.9-2,2-2h7c0.6,0,1,0.4,1,1s-0.4,1-1,1h-7v14C12,20.6,11.6,21,11,21z"/></g><g><path d="M19,13h-8c-0.6,0-1-0.4-1-1s0.4-1,1-1h8c0.6,0,1,0.4,1,1S19.6,13,19,13z"/></g></g></svg>