<svg id="Outline" height="512" viewBox="0 0 512 512" width="512" xmlns="http://www.w3.org/2000/svg"><path d="m40 464h432a24.028 24.028 0 0 0 24-24v-224a24.028 24.028 0 0 0 -24-24h-72v-32a8 8 0 0 0 -8-8h-8v-8a40.04 40.04 0 0 0 -40-40h-56a24.032 24.032 0 0 1 -24-24v-24a8 8 0 0 0 -16 0v24a40.04 40.04 0 0 0 40 40h56a24.032 24.032 0 0 1 24 24v8h-8a8 8 0 0 0 -8 8v32h-312a24.028 24.028 0 0 0 -24 24v224a24.028 24.028 0 0 0 24 24zm328-296h16v24h-16zm-336 48a8.009 8.009 0 0 1 8-8h432a8.009 8.009 0 0 1 8 8v224a8.009 8.009 0 0 1 -8 8h-432a8.009 8.009 0 0 1 -8-8z"/><path d="m56 272h32a8 8 0 0 0 8-8v-32a8 8 0 0 0 -8-8h-32a8 8 0 0 0 -8 8v32a8 8 0 0 0 8 8zm8-32h16v16h-16z"/><path d="m120 272h192a8 8 0 0 0 8-8v-32a8 8 0 0 0 -8-8h-192a8 8 0 0 0 -8 8v32a8 8 0 0 0 8 8zm120-16h-16v-16h16zm16-16h16v16h-16zm-48 16h-16v-16h16zm-32 0h-16v-16h16zm128 0h-16v-16h16zm-176-16h16v16h-16z"/><path d="m344 272h96a8 8 0 0 0 8-8v-32a8 8 0 0 0 -8-8h-96a8 8 0 0 0 -8 8v32a8 8 0 0 0 8 8zm40-16v-16h16v16zm48 0h-16v-16h16zm-80-16h16v16h-16z"/><path d="m352 296v32a8 8 0 0 0 8 8h96a8 8 0 0 0 8-8v-32a8 8 0 0 0 -8-8h-96a8 8 0 0 0 -8 8zm48 24v-16h16v16zm48 0h-16v-16h16zm-80-16h16v16h-16z"/><path d="m456 384h-24v-24a8 8 0 0 0 -8-8h-32a8 8 0 0 0 -8 8v24h-24a8 8 0 0 0 -8 8v32a8 8 0 0 0 8 8h96a8 8 0 0 0 8-8v-32a8 8 0 0 0 -8-8zm-40-16v16h-16v-16zm-48 32h16v16h-16zm48 16h-16v-16h16zm32 0h-16v-16h16z"/><path d="m56 432h232a8 8 0 0 0 8-8v-24h32a8 8 0 0 0 8-8v-96a8 8 0 0 0 -8-8h-272a8 8 0 0 0 -8 8v128a8 8 0 0 0 8 8zm8-32h16v16h-16zm192-16v-16h16v16zm-144 16v16h-16v-16zm112-16v-16h16v16zm-16-32v-16h16v16zm-16 0h-16v-16h16zm-32 0h-16v-16h16zm16 16v16h-16v-16zm16 0h16v16h-16zm48-16v-16h16v16zm32-16h16v16h-16zm-144 0v16h-16v-16zm16 32v16h-16v-16zm-16 32h88v16h-88zm104 0h16v16h-16zm72-64h16v16h-16zm-48-16v-16h16v16zm-16 0h-16v-16h16zm-32 0h-16v-16h16zm-32 0h-16v-16h16zm-32 0h-16v-16h16zm-32 0h-16v-16h16zm-16 16v16h-32v-16zm16 32v16h-48v-16zm152 48v-16h16v16zm24-32v-16h32v16zm32-64h-32v-16h32zm-240-16v16h-16v-16z"/></svg>