<svg height="512" viewBox="0 0 512 512" width="512" xmlns="http://www.w3.org/2000/svg"><g id="filled_outline" data-name="filled outline"><path d="m288 448v-24l-16-24v-48h-32v48l-16 24v24z" fill="#8098ab"/><path d="m320 56v216a24.00619 24.00619 0 0 1 -24 24h-80a24.00619 24.00619 0 0 1 -24-24v-216a32.004 32.004 0 0 1 32-32h64a32.004 32.004 0 0 1 32 32z" fill="#8098ab"/><path d="m285.1077 358.82461 66.8923-46.82461v-104h-32v88l-49.49014 35.3501a24.96365 24.96365 0 0 1 -14.50986 4.6499 24.96365 24.96365 0 0 1 -14.50985-4.6499l-49.49015-35.3501v-88h-32v104l66.8923 46.82461a50.75775 50.75775 0 0 0 29.1077 9.17539 50.75775 50.75775 0 0 0 29.1077-9.17539z" fill="#62798c"/><path d="m120 232h40v56h-40z" fill="#8098ab"/><path d="m352 232h40v56h-40z" fill="#8098ab"/><path d="m360 488v-16l-56-24h-96l-56 24v16z" fill="#718799"/><path d="m320 184v88a24.00619 24.00619 0 0 1 -24 24h-80a24.00619 24.00619 0 0 1 -24-24v-88z" fill="#718799"/><path d="m289.69543 365.37842 66.89257-46.82471a7.99968 7.99968 0 0 0 3.41212-6.55371v-16h32a8.00008 8.00008 0 0 0 8-8v-56a8.00008 8.00008 0 0 0 -8-8h-32v-16a8.00008 8.00008 0 0 0 -8-8h-24v-144a40.04551 40.04551 0 0 0 -40-40h-64a40.04552 40.04552 0 0 0 -40 40v144h-24a8.00008 8.00008 0 0 0 -8 8v16h-32a8.00008 8.00008 0 0 0 -8 8v56a8.00008 8.00008 0 0 0 8 8h32v16a7.99968 7.99968 0 0 0 3.41211 6.55371l66.89258 46.82471a59.03354 59.03354 0 0 0 9.69531 5.50622v26.693l-14.65625 21.98486a7.99991 7.99991 0 0 0 -1.34375 4.4375v16h-8a8.003 8.003 0 0 0 -3.15137.647l-56 24a7.99956 7.99956 0 0 0 -4.84863 7.353v16a8.00008 8.00008 0 0 0 8 8h208a8.00008 8.00008 0 0 0 8-8v-16a7.99954 7.99954 0 0 0 -4.84863-7.353l-56-24a8.003 8.003 0 0 0 -3.15137-.647h-8v-16a7.99983 7.99983 0 0 0 -1.34375-4.4375l-14.65625-21.98486v-26.693a59.03354 59.03354 0 0 0 9.69531-5.50622zm94.30469-125.37842v40h-24v-40zm-72 32a16.01833 16.01833 0 0 1 -16 16h-80a16.01833 16.01833 0 0 1 -16-16v-80h112zm-16.96387 32-29.17675 20.84082a16.96494 16.96494 0 0 1 -19.71973-.00049l-29.17577-20.84033zm-71.03613-272h64a24.0275 24.0275 0 0 1 24 24v120h-112v-120a24.0275 24.0275 0 0 1 24-24zm-96 248v-40h24v40zm40 27.835v-91.835h16v80a8.00137 8.00137 0 0 0 3.34961 6.50977l49.49027 35.34961a32.96342 32.96342 0 0 0 38.32031.00048l49.49023-35.35009a8.00134 8.00134 0 0 0 3.34958-6.50977v-80h16v91.835l-63.48047 44.436a42.75746 42.75746 0 0 1 -49.03906 0zm184 169.44043v2.72457h-192v-2.72461l49.64258-21.27539h92.71484zm-86.65625-72.83793 14.65625 21.98486v13.57764h-48v-13.57764l14.65625-21.98486a7.99983 7.99983 0 0 0 1.34375-4.4375v-24.551a58.34858 58.34858 0 0 0 16 0v24.551a7.99991 7.99991 0 0 0 1.34375 4.4375z"/><path d="m216 144h16v16h-16z"/><path d="m248 144h16v16h-16z"/><path d="m280 144h16v16h-16z"/><path d="m216 112h16v16h-16z"/><path d="m248 112h16v16h-16z"/><path d="m280 112h16v16h-16z"/><path d="m216 80h16v16h-16z"/><path d="m248 80h16v16h-16z"/><path d="m280 80h16v16h-16z"/><path d="m216 48h16v16h-16z"/><path d="m248 48h16v16h-16z"/><path d="m280 48h16v16h-16z"/></g></svg>