<svg id="Capa_1" enable-background="new 0 0 512 512" height="512" viewBox="0 0 512 512" width="512" xmlns="http://www.w3.org/2000/svg"><g><path d="m91.818 242.489c7.834 78.527 70.738 140.687 149.182 147.827v91.684h-90v30h210v-30h-90v-91.684c78.281-7.125 141.332-69.142 149.182-147.827l-29.852-2.978c-6.909 69.26-64.659 121.489-134.33 121.489s-127.421-52.229-134.33-121.489z"/><path d="m256 331c57.897 0 105-47.103 105-105v-120c0-58.449-47.103-106-105-106s-105 47.551-105 106v120c0 57.897 47.103 105 105 105zm0-301c36.289 0 66.634 26.254 73.526 61h-43.526v30h45v30h-45v30h45v30h-45v29.99h43.491c-6.969 34.202-37.271 60.01-73.491 60.01s-66.522-25.808-73.491-60h43.491v-30h-45v-30h45v-30h-45v-30h45v-30h-43.526c6.892-34.746 37.237-61 73.526-61z"/></g></svg>